<?xml version="1.0" standalone="no"?><!DOCTYPE svg PUBLIC "-//W3C//DTD SVG 1.1//EN" "http://www.w3.org/Graphics/SVG/1.1/DTD/svg11.dtd"><svg t="1535382156299" class="icon" style="" viewBox="0 0 1024 1024" version="1.1" xmlns="http://www.w3.org/2000/svg" p-id="1695" xmlns:xlink="http://www.w3.org/1999/xlink" width="200" height="200"><defs><style type="text/css"></style></defs><path d="M500.932128 470.561092c-9.433972-8.050655-67.396195-54.235991-76.668156-59.943731-108.78354-66.822928-204.48165 17.908345-204.481651 17.908345-139.204049 139.166662-4.149951 257.371711-4.14995 257.371712l108.609067 108.534293s-33.411464 5.558192-52.914985 8.362213-36.140711 16.674576-43.156994 57.040012 47.356794 61.214887 47.356793 61.214887l179.606872 1.383317 28.177292 28.152367 12.163219 12.150757 0.224321-0.21186 63.819511 61.401822 243.613316-243.513618-62.660515-62.598204s-23.229754-23.765633-28.090056-28.663322" fill="#E2FFBD" p-id="1696"></path><path d="M916.562767 523.887334l-2.04382-4.436584v-0.062311l-21.784125-47.356794 61.065339-168.914206s-0.735277-58.174082-41.001013-65.639008-59.108756 3.352362-68.542728 20.674979-26.17086 46.733678-26.17086 46.733678l-64.168455-139.490682S689.835886-2.296493 511.039065 80.017092c0 0-144.301135 77.266348-70.312376 238.179747 66.910165 145.559829 144.562844 314.461572 158.819731 345.492735l39.343525 85.528862 312.878859-144.051889-35.305736-81.279213z" fill="#E2FFBD" p-id="1697"></path><path d="M546.668821 716.92858a12.250455 12.250455 0 0 1-4.311961-0.772664 12.462314 12.462314 0 0 1-7.00382-6.480403l-39.318601-85.528862c-8.02573-17.44724-36.140711-78.711976-71.184739-154.869177l-87.62253-190.673407c-40.652069-88.48243-17.858496-153.037217 8.424524-191.657928 28.214679-41.487044 65.726245-61.87539 67.296496-62.722827l0.672965-0.324021c58.847047-27.093071 112.322837-31.155785 158.956817-12.163218 69.290467 28.252066 97.978714 97.305749 100.620724 103.985549l53.812273 117.058516c4.797991-8.536685 10.119399-18.057893 14.05749-25.348347 13.708546-25.423121 41.237797-34.495686 81.715394-27.005834 49.76202 9.222112 51.157799 74.935895 51.182724 77.727453a12.250455 12.250455 0 0 1-0.735277 4.386735l-59.283228 164.141139 19.590758 42.571265a1.109146 1.109146 0 0 0 0.099698 0.211859l2.031358 4.424122a12.935882 12.935882 0 0 1 0.64804 1.757186l34.670158 79.758811a12.462314 12.462314 0 0 1-6.231157 16.288244L551.865606 715.806972a12.71156 12.71156 0 0 1-5.196785 1.121608z m-122.205452-670.4725a189.265165 189.265165 0 0 0-58.734887 55.394986c-32.464328 48.291467-34.433374 104.297107-5.857287 166.45913l87.62253 190.673406c35.019103 76.157202 63.159008 137.384551 71.197201 154.869178l34.096891 74.188156 290.48408-133.845254-30.432971-70.050668a11.814274 11.814274 0 0 1-0.473568-1.246231l-1.246231-2.816483a1.769649 1.769649 0 0 1-0.099699-0.224322l-21.784125-47.356793a12.462314 12.462314 0 0 1-0.398794-9.433972l60.15559-166.596215c-0.598191-9.259499-4.623519-46.646442-30.694679-51.469358-43.156994-8.000806-51.942925 8.23759-55.257901 14.344124-9.321811 17.260305-26.17086 46.696291-26.33287 46.995386a12.462314 12.462314 0 0 1-22.13307-0.984522l-64.19338-139.503145c-0.112161-0.249246-0.211859-0.498493-0.311558-0.760201-0.249246-0.635578-25.884226-65.476998-87.124038-90.31439-39.842018-16.163621-86.438611-12.250455-138.506159 11.614876z" fill="#5B2D61" p-id="1698"></path><path d="M485.354235 1009.506329a12.38754 12.38754 0 0 1-8.636383-3.489448l-61.850465-59.50755a12.287842 12.287842 0 0 1-2.355378-1.844423l-12.163218-12.150756-0.261709-0.274171-24.338899-24.313975-174.472398-1.34593a12.213068 12.213068 0 0 1-4.374272-0.822512c-2.604624-0.996985-63.757199-25.099101-55.170665-74.973282 7.003821-40.55237 25.061714-63.17147 53.675187-67.296496 8.200203-1.171458 18.980104-2.85387 28.663322-4.41166l-91.149365-91.037204c-5.38372-4.785529-60.192977-55.669157-62.672978-130.443042-1.657488-50.335287 20.724828-99.075397 66.536295-144.874402l0.548342-0.510955c1.059297-0.934674 26.245634-22.99297 65.676396-36.477193 36.776289-12.54955 93.267959-19.740306 153.585559 17.360003 10.418495 6.405629 68.854286 53.064534 78.238408 61.065339a12.467299 12.467299 0 0 1-16.201008 18.95518c-9.222112-7.913569-66.872778-53.787348-75.097905-58.834585-41.786139-25.672367-86.363837-30.69468-132.474399-14.954777a186.585767 186.585767 0 0 0-56.952776 31.367645c-40.452672 40.564832-60.280213 82.911776-58.934284 125.869373 2.056282 66.050265 53.986745 112.572084 54.510162 113.033189l0.585729 0.548342 108.609068 108.534293a12.462314 12.462314 0 0 1-6.767037 21.11116c-0.336482 0-33.760409 5.608041-53.176694 8.3996-6.904122 0.984523-25.186337 3.589146-32.651263 46.820914-4.498895 26.17086 29.13689 42.870361 37.648651 46.658904l177.126871 1.358393a12.462314 12.462314 0 0 1 8.723619 3.651458l28.177293 28.152367 0.249246 0.261709 9.969851 9.969851a12.462314 12.462314 0 0 1 1.981508 1.570252l55.021117 52.927448 226.153614-226.028991-53.824734-53.787348-0.099699-0.112161c-0.236784-0.236784-23.229754-23.753171-27.990357-28.501312a12.462314 12.462314 0 0 1 17.60925-17.634175c4.797991 4.773066 26.644428 27.117996 28.152367 28.663323l62.598204 62.548354a12.462314 12.462314 0 0 1 0 17.634175l-243.613316 243.513618a12.462314 12.462314 0 0 1-8.810857 3.651458zM687.535342 401.299289l14.306737-20.410778 135.693415 95.119858-14.306737 20.409532zM673.810596 511.980839l14.306737-20.409532 97.771839 68.537743-14.306737 20.409532z" fill="#5B2D61" p-id="1699"></path><path d="M566.134956 279.937535l19.341511 65.676396 65.489461 21.59719-56.952776 38.359003-0.286633 68.368255-54.547549-41.973074-65.663933 20.662517 23.242216-64.305541-40.290662-55.594383 68.904135 2.230754 40.76423-55.021117z" fill="#FFD7E9" p-id="1700"></path><path d="M599.907827 486.500392l-61.962626-47.630965-74.562025 23.479 26.395181-73.054085-45.823929-63.233782 78.363031 2.492462 46.26011-62.448656 21.958598 74.58695 74.524638 24.575684-64.804033 43.618099z m-59.470163-61.464134l47.144934 36.277797 0.249247-59.071369 49.138904-33.099906-56.504132-18.63116-16.736888-56.81569-35.243424 47.593578-59.470163-1.931659 34.769856 47.979909-20.126637 55.544534zM502.599586 780.461457l24.515864-4.495156 29.885876 162.994606-24.515865 4.493911zM415.122864 849.685874l24.515865-4.495157 21.533632 117.443602-24.515864 4.495157z" fill="#5B2D61" p-id="1701"></path><path d="M501.256148 608.880316l-32.327243 60.36745 31.479806 61.33951-67.483431-12.661711-48.204231 48.503327-9.384123-68.193783-61.264736-31.367645 61.688455-29.485835 10.331258-67.882225 47.506342 49.961417 67.657903-10.580505z" fill="#FFD7E9" p-id="1702"></path><path d="M380.272003 779.751105l-10.655279-77.453282-69.589562-35.629756 70.075592-33.486238 11.751963-77.266348 54.011669 56.828153 76.79278-12.013671-36.689053 68.542728 35.791766 69.788959-76.74293-14.406435zM328.12968 667.054399l52.939911 27.117995 8.112966 58.921822 41.649054-41.898301 58.236394 10.916988-27.14292-52.939911 27.95297-52.204634-58.535489 9.109952-41.001013-43.119607-8.910555 58.572876z" fill="#5B2D61" p-id="1703"></path></svg>